<svg width="24" height="24" viewBox="0 0 24 24" fill="none" xmlns="http://www.w3.org/2000/svg">
<path d="M12 4.64844C16.7799 4.64844 20.6698 8.54829 20.6699 13.3281C20.6699 18.1081 16.78 21.998 12 21.998C7.22002 21.998 3.33008 18.0983 3.33008 13.3184C3.3301 8.53845 7.22004 4.64849 12 4.64844ZM11.8301 8.14453C11.5852 7.92964 11.2064 7.96035 10.9932 8.19824L9.67383 9.66406C9.66593 9.67174 9.6661 9.67982 9.6582 9.6875C9.65044 9.69504 9.64253 9.70195 9.63477 9.70215C9.61107 9.73285 9.61052 9.76408 9.59473 9.78711C9.58683 9.80625 9.57722 9.82358 9.56934 9.84082L9.54199 9.94824C9.54002 9.96552 9.54004 9.98276 9.54004 10.002C9.53214 10.0403 9.53223 10.071 9.53223 10.1094C9.53223 10.1477 9.54776 10.1784 9.55566 10.2168C9.5714 10.2474 9.57903 10.2858 9.59473 10.3164C9.61842 10.3548 9.64232 10.3785 9.66602 10.4092C9.68956 10.4322 9.69805 10.4622 9.72168 10.4775C9.72957 10.4852 9.73723 10.4855 9.74512 10.4932L9.76074 10.5088L11.293 11.6064C11.3956 11.6755 11.5222 11.7139 11.6406 11.7139C11.8222 11.7139 12.0036 11.629 12.1221 11.4756C12.3195 11.2147 12.2566 10.8542 11.9961 10.6699L11.5537 10.3555C11.7038 10.3401 11.846 10.3242 11.9961 10.3242C13.8443 10.3242 15.3525 11.7908 15.3525 13.5869C15.3523 15.3828 13.8441 16.8486 11.9961 16.8486C10.148 16.8486 8.63989 15.3828 8.63965 13.5869C8.63965 12.9422 8.83696 12.3126 9.2002 11.7754C9.38975 11.5144 9.31053 11.1531 9.04199 10.9766C8.77352 10.8002 8.40237 10.8693 8.2207 11.1377C7.71521 11.8592 7.4541 12.7119 7.4541 13.5869C7.45434 16.0199 9.49249 18 11.9961 18C14.4998 18 16.5459 16.0269 16.5459 13.5938C16.5457 11.1607 14.5075 9.18066 12.0039 9.18066C11.8854 9.18067 11.7746 9.19643 11.6641 9.2041L11.8857 8.95801C12.0988 8.72006 12.0749 8.35173 11.8301 8.14453Z" fill="#151719"/>
<path d="M14.8906 3.45H9.11062C8.71062 3.45 8.39062 3.13 8.39062 2.73C8.39062 2.33 8.71062 2 9.11062 2H14.8906C15.2906 2 15.6106 2.32 15.6106 2.72C15.6106 3.12 15.2906 3.45 14.8906 3.45Z" fill="#151719"/>
</svg>
